<svg width="192" height="24" viewBox="0 0 192 24" fill="none" xmlns="http://www.w3.org/2000/svg">
<path d="M37.2532 0.386719L30.3451 12.3139L29.2969 14.5835L29.5351 12.5554L29.4875 0.386719H24.1992V23.8548H24.2469H29.0587L36.0145 11.6862L36.9673 9.5615L36.7768 11.4447L36.8244 23.8548H42.1127L42.065 0.386719H37.2532Z" fill="black"/>
<path d="M10.5766 0.386719H8.00389L0 23.8548H5.33592L10.4336 7.0988L15.5314 23.8548H21.1055L13.1016 0.386719H10.5766Z" fill="black"/>
<path d="M62.8862 0.386719H47.8789V5.74672V23.8548H53.1672V5.74672H62.8862V0.386719Z" fill="black"/>
<path d="M77.704 23.8548H83.2781L75.2742 0.386719H72.7016H70.1289L62.125 23.8066H67.4609L68.7949 19.364H76.3224L77.704 23.8548ZM70.2242 15.0181L72.6539 7.0988L75.036 15.0181H70.2242Z" fill="black"/>
<path d="M99.7621 23.1588L91.3047 17.5504V0.886719H108.266V17.5496L99.7621 23.1588Z" fill="#2C39F2" stroke="#2C39F2"/>
<path d="M104.956 13.7136C105.147 13.7136 105.338 13.7136 105.528 13.617V15.5486C105.052 15.6934 104.432 15.8383 103.861 15.8383C102.812 15.8383 102.003 15.452 101.574 14.6794C100.526 15.452 99.3346 15.9349 97.7624 15.8866C95.8091 15.8866 94.094 14.7277 94.1416 12.6995C94.1892 10.092 96.6666 9.31936 98.7629 9.31936C99.5728 9.31936 100.526 9.46422 101.24 9.60909V9.22278C101.24 8.20873 100.43 7.4844 98.7629 7.4844C97.3336 7.4844 96.0473 7.82242 95.0468 8.20873V5.64945C95.9044 5.35972 97.5242 4.97341 99.0964 5.0217C102.241 5.06999 104.242 6.32548 104.194 9.70567L104.146 12.9893C104.242 13.5687 104.575 13.7136 104.956 13.7136ZM96.8096 12.5547C96.8096 13.3756 97.5718 13.955 98.62 13.955C99.5728 13.955 100.43 13.7136 101.24 13.0858V11.3475C100.716 11.2026 99.9539 11.0577 99.2869 11.0577C98.0006 11.0577 96.8096 11.444 96.8096 12.5547Z" fill="white"/>
<path d="M121.442 8.78848H120.918C120.298 8.78848 119.774 8.6919 119.298 8.49875C118.821 8.30559 118.393 8.01586 118.059 7.72613C117.726 7.4364 117.487 7.00181 117.297 6.51892C117.106 6.03604 117.059 5.55316 117.059 5.02199C117.059 4.49081 117.154 3.95964 117.344 3.52505C117.535 3.09045 117.773 2.65586 118.107 2.31784C118.44 1.97982 118.869 1.73838 119.345 1.54523C119.822 1.35207 120.394 1.2555 120.965 1.2555H121.489V0H122.299V1.20721H122.823C123.443 1.20721 123.967 1.30378 124.443 1.49694C124.92 1.69009 125.348 1.97982 125.682 2.26955C126.015 2.55928 126.254 2.99388 126.444 3.47676C126.635 3.95964 126.73 4.44253 126.73 4.9737C126.73 5.50487 126.635 6.03604 126.444 6.47064C126.254 6.90523 126.015 7.33983 125.682 7.67784C125.348 8.01586 124.967 8.2573 124.443 8.45046C123.967 8.64361 123.395 8.74019 122.823 8.74019H122.299V9.9474H121.489V8.78848H121.442ZM121.442 8.11244V1.83496H120.918C120.441 1.83496 120.012 1.93153 119.631 2.0764C119.25 2.22126 118.964 2.41442 118.678 2.65586C118.393 2.8973 118.202 3.18703 118.059 3.52505C117.916 3.86307 117.869 4.20108 117.869 4.5391V5.36C117.869 5.69802 117.916 6.03604 118.059 6.37406C118.202 6.71208 118.393 7.00181 118.678 7.24325C118.964 7.48469 119.25 7.67784 119.631 7.82271C120.012 7.96757 120.441 8.06415 120.918 8.06415H121.442V8.11244ZM122.776 8.11244C123.252 8.11244 123.633 8.01586 124.014 7.871C124.395 7.72613 124.729 7.53298 124.967 7.29154C125.205 7.0501 125.444 6.76037 125.587 6.42235C125.729 6.08433 125.777 5.74631 125.777 5.40829V4.58739C125.777 4.24937 125.729 3.91135 125.587 3.57334C125.444 3.23532 125.253 2.94559 124.967 2.70415C124.681 2.4627 124.395 2.26955 124.014 2.12469C123.633 1.97982 123.204 1.88324 122.776 1.88324H122.252V8.16073H122.776V8.11244Z" fill="black"/>
<path d="M129.348 9.60925V0.337891H133.016C133.826 0.337891 134.445 0.579332 134.874 1.01393C135.303 1.49681 135.493 2.12456 135.493 2.89717C135.493 3.71807 135.303 4.34582 134.874 4.78042C134.445 5.2633 133.826 5.45645 133.016 5.45645H130.158V9.51267H129.348V9.60925ZM130.158 4.82871H133.016C133.54 4.82871 133.969 4.68384 134.255 4.39411C134.541 4.10438 134.684 3.71807 134.684 3.28348V2.60744C134.684 2.17285 134.541 1.78654 134.255 1.49681C133.969 1.20708 133.588 1.06222 133.016 1.06222H130.158V4.82871Z" fill="black"/>
<path d="M141.354 9.75445C140.163 9.75445 139.258 9.36814 138.543 8.54724C137.876 7.72634 137.543 6.56742 137.543 4.9739C137.543 3.38039 137.876 2.22147 138.543 1.40057C139.21 0.579666 140.163 0.193359 141.354 0.193359C142.545 0.193359 143.451 0.579666 144.118 1.40057C144.785 2.22147 145.118 3.38039 145.118 4.9739C145.118 6.51913 144.785 7.72634 144.118 8.54724C143.451 9.36814 142.545 9.75445 141.354 9.75445ZM141.354 9.07841C141.783 9.07841 142.212 8.98183 142.545 8.83697C142.927 8.6921 143.212 8.45066 143.451 8.16093C143.689 7.8712 143.927 7.4849 144.07 7.0503C144.213 6.61571 144.261 6.13282 144.261 5.55336V4.39444C144.261 3.86327 144.213 3.3321 144.07 2.89751C143.927 2.46291 143.736 2.0766 143.451 1.78687C143.212 1.49714 142.879 1.2557 142.545 1.11084C142.212 0.965973 141.783 0.869396 141.354 0.869396C140.926 0.869396 140.497 0.965973 140.163 1.11084C139.782 1.2557 139.496 1.49714 139.21 1.78687C138.925 2.0766 138.734 2.46291 138.591 2.89751C138.448 3.3321 138.401 3.81498 138.401 4.39444V5.55336C138.401 6.08454 138.448 6.61571 138.591 7.0503C138.734 7.4849 138.925 7.8712 139.21 8.16093C139.449 8.45066 139.782 8.6921 140.163 8.83697C140.497 8.98183 140.926 9.07841 141.354 9.07841Z" fill="black"/>
<path d="M153.837 5.2633H148.74V9.60925H147.93V0.337891H148.74V4.53898H153.837V0.337891H154.647V9.60925H153.837V5.2633Z" fill="black"/>
<path d="M160.84 1.06222V9.60925H160.03V1.06222H156.934V0.337891H163.937V1.06222H160.84Z" fill="black"/>
<path d="M166.176 9.60925V0.337891H171.607V1.06222H166.986V4.53898H171.369V5.2633H166.986V8.88493H171.607V9.60925H166.176Z" fill="black"/>
<path d="M180.376 5.2633H175.279V9.60925H174.469V0.337891H175.279V4.53898H180.376V0.337891H181.186V9.60925H180.376V5.2633Z" fill="black"/>
<path d="M183.281 8.88492H184.234C184.663 8.30546 184.949 7.53285 185.187 6.56709C185.425 5.60132 185.52 4.39411 185.52 2.94546V0.337891H190.761V8.88492H192V11.5891H191.237V9.60925H184.044V11.5891H183.281V8.88492V8.88492ZM189.951 8.88492V1.06222H186.283V3.04204C186.283 4.49069 186.187 5.6979 185.997 6.66366C185.806 7.62943 185.52 8.35375 185.187 8.88492V8.93321H189.951V8.88492Z" fill="black"/>
<path d="M124.156 23.8544L123.155 20.9571H119.201L118.201 23.8544H117.391L120.678 14.583H121.678L124.966 23.8544H124.156ZM121.154 15.3556H121.107L119.392 20.281H122.917L121.154 15.3556Z" fill="black"/>
<path d="M127.492 23.13H128.778L129.302 21.8263L125.824 14.583H126.682L129.016 19.4601L129.636 20.8122H129.683L130.207 19.4118L132.161 14.583H132.971L129.588 23.0335C129.445 23.3715 129.302 23.5646 129.112 23.7095C128.921 23.8061 128.683 23.8544 128.349 23.8544H127.492V23.13Z" fill="black"/>
<path d="M138.258 15.3073V23.8544H137.448V15.3073H134.352V14.583H141.355V15.3073H138.258Z" fill="black"/>
<path d="M146.547 24C145.403 24 144.498 23.6137 143.879 22.7928C143.259 21.9719 142.926 20.813 142.926 19.2195C142.926 17.6742 143.259 16.467 143.879 15.6461C144.498 14.8252 145.403 14.3906 146.547 14.3906C147.309 14.3906 147.928 14.5838 148.452 14.9218C148.976 15.2598 149.357 15.7427 149.643 16.3704L148.976 16.7568C148.786 16.2739 148.452 15.8393 148.071 15.5495C147.642 15.2598 147.166 15.1149 146.594 15.1149C145.737 15.1149 145.07 15.4047 144.546 16.0324C144.069 16.6602 143.831 17.5294 143.831 18.6883V19.7989C143.831 20.9578 144.069 21.827 144.546 22.4065C145.022 22.9859 145.689 23.324 146.594 23.324C147.214 23.324 147.738 23.1791 148.166 22.8411C148.595 22.5514 148.881 22.1168 149.119 21.5856L149.786 21.9719C149.5 22.5996 149.119 23.1308 148.595 23.4688C147.928 23.8068 147.309 24 146.547 24Z" fill="black"/>
<path d="M155.409 23.9996C154.218 23.9996 153.313 23.6133 152.598 22.7924C151.931 21.9715 151.598 20.8125 151.598 19.219C151.598 17.6255 151.931 16.4666 152.598 15.6457C153.265 14.8248 154.218 14.4385 155.409 14.4385C156.6 14.4385 157.505 14.8248 158.172 15.6457C158.839 16.4666 159.173 17.6255 159.173 19.219C159.173 20.7642 158.839 21.9715 158.172 22.7924C157.505 23.6133 156.6 23.9996 155.409 23.9996ZM155.409 23.3235C155.838 23.3235 156.267 23.227 156.6 23.0821C156.981 22.9372 157.267 22.6958 157.505 22.4061C157.743 22.1163 157.982 21.73 158.125 21.2954C158.268 20.8608 158.315 20.3779 158.315 19.7985V18.6396C158.315 18.1084 158.268 17.5772 158.125 17.1426C157.982 16.708 157.791 16.3217 157.505 16.032C157.267 15.7423 156.934 15.5008 156.6 15.356C156.267 15.2111 155.838 15.1145 155.409 15.1145C154.98 15.1145 154.551 15.2111 154.218 15.356C153.837 15.5008 153.551 15.7423 153.265 16.032C152.979 16.3217 152.789 16.708 152.646 17.1426C152.503 17.5772 152.455 18.0601 152.455 18.6396V19.7985C152.455 20.3297 152.503 20.8608 152.646 21.2954C152.789 21.73 152.979 22.1163 153.265 22.4061C153.503 22.6958 153.837 22.9372 154.218 23.0821C154.551 23.227 154.98 23.3235 155.409 23.3235Z" fill="black"/>
<path d="M162.031 23.8544V14.583H165.7C166.51 14.583 167.129 14.8244 167.558 15.259C167.987 15.7419 168.177 16.3697 168.177 17.1423C168.177 17.9632 167.987 18.5909 167.558 19.0255C167.129 19.5084 166.51 19.7016 165.7 19.7016H162.841V23.7578H162.031V23.8544ZM162.841 19.0738H165.7C166.224 19.0738 166.653 18.929 166.938 18.6392C167.224 18.3495 167.367 17.9632 167.367 17.5286V16.9008C167.367 16.4663 167.224 16.0799 166.938 15.7902C166.653 15.5005 166.271 15.3556 165.7 15.3556H162.841V19.0738Z" fill="black"/>
<path d="M173.847 24C172.704 24 171.799 23.6137 171.179 22.7928C170.56 21.9719 170.227 20.813 170.227 19.2195C170.227 17.6742 170.56 16.467 171.179 15.6461C171.799 14.8252 172.704 14.3906 173.847 14.3906C174.61 14.3906 175.229 14.5838 175.753 14.9218C176.277 15.2598 176.658 15.7427 176.944 16.3704L176.277 16.7568C176.087 16.2739 175.753 15.8393 175.372 15.5495C174.943 15.2598 174.467 15.1149 173.895 15.1149C173.037 15.1149 172.37 15.4047 171.846 16.0324C171.37 16.6602 171.132 17.5294 171.132 18.6883V19.7989C171.132 20.9578 171.37 21.827 171.846 22.4065C172.323 22.9859 172.99 23.324 173.895 23.324C174.514 23.324 175.038 23.1791 175.467 22.8411C175.896 22.5514 176.182 22.1168 176.42 21.5856L177.087 21.9719C176.801 22.5996 176.42 23.1308 175.896 23.4688C175.229 23.8068 174.562 24 173.847 24Z" fill="black"/>
</svg>
